HIERARCHY
ROOT Hips
{
  OFFSET 0.382225 96.6805 0.598322
  CHANNELS 6 Xposition Yposition Zposition Zrotation Xrotation Yrotation
  JOINT Spine
  {
    OFFSET 10.8089 -0.851416 0
    CHANNELS 3 Zrotation Xrotation Yrotation
    JOINT Spine1
    {
      OFFSET 18.8753 3.80116 0
      CHANNELS 3 Zrotation Xrotation Yrotation
      JOINT Spine2
      {
        OFFSET 13.4073 0.420477 0
        CHANNELS 3 Zrotation Xrotation Yrotation
        JOINT LeftShoulder
        {
          OFFSET 11.8837 -2.73209 -3.78198
          CHANNELS 3 Zrotation Xrotation Yrotation
          JOINT LeftArm
          {
            OFFSET 15.7849 0 -2.35849e-005
            CHANNELS 3 Zrotation Xrotation Yrotation
            JOINT LeftForeArm
            {
              OFFSET 30.3399 0 0
              CHANNELS 3 Zrotation Xrotation Yrotation
              JOINT LeftHand
              {
                OFFSET 26.9751 0 2.45913e-005
                CHANNELS 3 Zrotation Xrotation Yrotation
                End Site
                {
                  OFFSET 8 0 0
                }
              }
            }
          }
        }
        JOINT RightShoulder
        {
          OFFSET 11.8838 -2.7321 3.782
          CHANNELS 3 Zrotation Xrotation Yrotation
          JOINT RightArm
          {
            OFFSET -15.7848 0 -1.07056e-005
            CHANNELS 3 Zrotation Xrotation Yrotation
            JOINT RightForeArm
            {
              OFFSET -30.34 1.02096e-005 -2.53607e-005
              CHANNELS 3 Zrotation Xrotation Yrotation
              JOINT RightHand
              {
                OFFSET -26.9752 2.07668e-005 0
                CHANNELS 3 Zrotation Xrotation Yrotation
                End Site
                {
                  OFFSET -8 0 0
                }
              }
            }
          }
        }
        JOINT Neck
        {
          OFFSET 16.5588 -0.355318 0
          CHANNELS 3 Zrotation Xrotation Yrotation
          JOINT Head
          {
            OFFSET 9.28361 0.364157 0
            CHANNELS 3 Zrotation Xrotation Yrotation
            End Site
            {
              OFFSET 0 0 0
            }
          }
        }
      }
    }
  }
  JOINT LeftUpLeg
  {
    OFFSET -1.44883 -0.531424 -9.00581
    CHANNELS 3 Zrotation Xrotation Yrotation
    JOINT LeftLeg
    {
      OFFSET -42.572 0.0788889 -0.011964
      CHANNELS 3 Zrotation Xrotation Yrotation
      JOINT LeftFoot
      {
        OFFSET -40.1967 0 0
        CHANNELS 3 Zrotation Xrotation Yrotation
				JOINT LeftToe
        {
          OFFSET -10.4538 -16.5779 0.0801563
          CHANNELS 3 Zrotation Xrotation Yrotation
          End Site
          {
            OFFSET -1.0 -1.0 0.0
          }
        }
      }
    }
  }
  JOINT RightUpLeg
  {
    OFFSET -1.44865 -0.531427 9.0058
    CHANNELS 3 Zrotation Xrotation Yrotation
    JOINT RightLeg
    {
      OFFSET 42.5723 -3.24776e-005 0
      CHANNELS 3 Zrotation Xrotation Yrotation
      JOINT RightFoot
      {
        OFFSET 40.1968 0 -1.14003e-005
        CHANNELS 3 Zrotation Xrotation Yrotation
				JOINT RightToe
        {
          OFFSET 10.4538 16.5778 -0.0801573
          CHANNELS 3 Zrotation Xrotation Yrotation
          End Site
          {
            OFFSET -1.0 -1.0 0.0
          }
        }
      }
    }
  }
}
MOTION
Frames:	7
Frame Time:	0.0333333
-41.5339 94.5062 11.2435 -88.5141 -37.9782 150.806 -48.4258 -9.82772 -17.4711 17.5091 -0.178043 -0.326862 2.7794 1.93418e-006 1.65929e-005 -2.99912 8.36367 92.0379 -26.8562 -14.3793 18.4321 -62.4149 1.45715 -17.2409 -71.5529 -45.0516 -83.8184 178.303 23.6969 84.134 2.13004 1.52171 36.4884 -105.407 -7.7355 -8.24539 -47.5562 -67.5122 -30.9388 -23.508 4.63459e-006 -5.90926e-006 11.7073 30.6117 21.6166 42.8156 15.8083 -44.0769 -92.8349 0.767321 -4.06815 -8.83556 -20.2851 5.73808 -90 0 0 -133.767 -2.00205 -32.8464 -67.5862 -0.397877 -5.44271 7.25815 -5.38898 -4.3475 -90 0 0
-39.3279 89.9701 11.1286 -88.8969 -38.5744 154.451 -49.4461 -8.80921 -20.4287 16.9725 -0.149026 -0.276676 2.7794 1.93418e-006 1.65929e-005 -2.83369 7.36709 89.5063 -36.5595 -17.4416 8.84987 -71.7842 6.18648 -19.0478 -63.6094 -45.3067 -73.0108 176.851 25.562 86.3437 16.122 16.5632 47.7565 -107.548 -7.59821 -8.38475 -45.7339 -65.682 -29.8326 -23.508 4.63459e-006 -5.90926e-006 15.2636 33.3245 22.2938 44.9562 19.8055 -39.473 -88.295 0.0402699 -4.07236 -8.27167 -29.4692 12.0017 -90 0 0 -135.862 -8.90275 -32.7966 -68.4849 -0.125621 -5.50023 12.8907 4.57143 -11.262 -90 0 0
-37.4238 84.4018 11.0045 -88.0228 -36.5276 158.573 -49.449 -7.88423 -20.5305 15.185 -0.0557856 -0.10756 2.7794 1.93418e-006 1.65929e-005 -2.81951 7.6748 87.5043 -42.4279 -13.975 2.78094 -83.6302 12.4921 -20.2046 -58.1601 -43.9387 -65.8096 175.474 24.4824 89.708 27.4941 25.175 55.0777 -104.669 -7.78133 -8.19628 -54.0427 -60.9563 -38.0256 -23.508 4.63459e-006 -5.90926e-006 17.1313 38.315 24.602 46.5739 25.0642 -37.4162 -78.4538 -1.14119 -3.93445 -12.2292 -36.5172 14.439 -90 0 0 -141.68 -12.7967 -36.5319 -60.593 -1.6548 -4.93624 22.3693 -0.737014 18.8626 -90 0 0
-36.0045 78.4152 9.95613 -89.0775 -33.6038 164.221 -52.0984 -5.49956 -21.16 15.5479 -0.0742829 -0.142102 2.7794 1.93418e-006 1.65929e-005 -2.84593 8.17464 87.3976 -44.5176 -3.54268 0.299202 -93.377 17.6818 -20.155 -56.3607 -43.2396 -60.3991 176.189 21.2929 90.0679 25.0416 26.6298 61.4138 -97.3667 -8.20121 -7.67911 -68.6589 -50.8086 -58.0136 -23.508 4.63459e-006 -5.90926e-006 17.9648 41.5884 25.4384 46.7281 24.1607 -36.8879 -68.6422 -2.18539 -3.60972 -6.32923 -34.799 14.3765 -90 0 0 -131.569 -9.77151 -31.6281 -72.3187 -0.00433975 -5.71654 24.7311 -3.45662 18.3106 -90 0 0
-35.2919 72.5315 9.64979 -94.6658 -32.8604 166.622 -55.2414 -4.27652 -20.967 14.8979 -0.0412996 -0.0801097 2.7794 1.93418e-006 1.65929e-005 -2.83428 7.61399 88.3637 -45.8597 9.02834 6.24961 -93.353 17.6687 -20.1562 -55.363 -40.881 -54.298 177.227 16.273 90.9766 17.7225 21.307 63.649 -93.7583 -8.3836 -7.40478 -62.5466 -52.215 -54.9462 -23.508 4.63459e-006 -5.90926e-006 18.1142 42.4633 23.4559 39.2367 11.5361 -33.5019 -75.4837 -1.68329 -3.89411 20.9507 -19.2616 26.2261 -90 0 0 -127.977 -5.75177 -30.7791 -82.1949 1.44054 -6.08683 27.3493 -6.18305 18.3534 -90 0 0
-34.9823 67.0829 9.4786 -101.189 -32.6968 164.692 -57.2033 -4.6132 -15.8579 15.8925 -0.0920583 -0.17484 2.7794 1.93418e-006 1.65929e-005 -2.94784 8.27733 90.5182 -48.0586 17.5043 20.5664 -83.9769 12.6789 -20.2185 -44.5996 -41.5328 -48.1435 177.37 14.2893 92.2882 4.79534 8.855 67.7462 -92.0396 -8.46432 -7.27015 -47.6098 -54.3874 -39.2885 -23.508 4.63459e-006 -5.90926e-006 17.4553 42.065 20.0379 38.7813 8.87678 -33.3558 -86.1563 -0.294688 -4.12442 31.1314 -6.25451 19.1864 -90 0 0 -128.129 -7.07065 -31.0866 -91.4513 2.77933 -6.18189 30.0815 -5.38059 19.5839 -90 0 0
-35.2532 62.354 8.12644 -109.3 -37.534 160.814 -59.2388 -5.65108 -11.6116 17.0675 -0.154133 -0.285577 2.7794 1.93418e-006 1.65929e-005 -3.4205 10.5073 93.9476 -43.3367 14.444 32.6714 -68.3569 4.41661 -18.4736 -42.49 -41.2812 -48.3744 177.376 12.9973 93.6046 -9.42934 -9.42537 69.64 -93.5525 -8.39345 -7.38875 -49.3744 -56.4398 -38.3583 -23.508 4.63459e-006 -5.90926e-006 25.1915 41.1909 13.0912 43.7882 4.12591 -34.2119 -94.2684 0.691432 -4.12453 28.4093 -0.219586 15.1603 -90 0 0 -131.245 -6.56554 -32.9074 -99.7563 3.98824 -6.06675 33.7601 -2.16877 21.1632 -90 0 0
